<?xml version="1.0" standalone="no"?>
<!DOCTYPE svg PUBLIC "-//W3C//DTD SVG 20010904//EN"
 "http://www.w3.org/TR/2001/REC-SVG-20010904/DTD/svg10.dtd">
<svg version="1.0" xmlns="http://www.w3.org/2000/svg"
 width="640.000000pt" height="640.000000pt" viewBox="0 0 640.000000 640.000000"
 preserveAspectRatio="xMidYMid meet">
<metadata>
Created by potrace 1.14, written by Peter Selinger 2001-2017
</metadata>
<g transform="translate(0.000000,640.000000) scale(0.100000,-0.100000)"
fill="#000000" stroke="none">
<path d="M0 6200 l0 -201 47 6 c27 3 106 12 177 20 70 8 134 19 142 25 7 7 22
9 34 5 11 -4 20 -2 20 4 0 6 -4 11 -9 11 -5 0 -12 11 -15 24 -3 13 -22 47 -41
76 -19 29 -35 54 -35 57 0 3 -13 25 -30 50 -17 24 -30 47 -30 51 0 4 -13 22
-28 40 l-28 32 -102 0 -102 0 0 -200z"/>
<path d="M940 6387 c0 -37 54 -42 63 -6 4 16 0 19 -29 19 -21 0 -34 -5 -34
-13z"/>
<path d="M6085 6271 c-70 -8 -147 -40 -190 -80 -16 -15 -46 -38 -65 -51 -19
-13 -58 -45 -86 -71 -61 -56 -85 -64 -266 -84 -200 -22 -202 -22 -247 24 -32
32 -52 43 -122 61 -46 12 -104 35 -128 51 -25 16 -48 29 -52 29 -4 0 -31 -20
-60 -45 -29 -25 -84 -61 -122 -80 -38 -19 -93 -51 -122 -70 -70 -47 -213 -83
-360 -91 l-110 -6 -83 83 c-95 95 -114 96 -82 4 22 -64 25 -91 11 -100 -6 -3
-70 -12 -143 -21 -96 -11 -138 -12 -156 -5 -39 18 -207 13 -319 -10 -56 -12
-109 -19 -117 -16 -8 3 -25 25 -37 49 -12 24 -23 45 -25 47 -7 8 -33 -33 -34
-51 0 -40 -46 -5 -80 61 -35 69 -82 74 -130 14 -18 -23 -21 -36 -16 -73 3 -25
8 -55 12 -67 5 -19 1 -22 -38 -27 -23 -3 -72 -7 -107 -8 l-65 -3 -44 85 c-57
111 -57 112 -117 103 -40 -5 -57 -14 -83 -42 -17 -19 -32 -40 -32 -47 0 -7
-16 -33 -35 -58 -19 -26 -35 -50 -35 -55 0 -14 -30 -21 -158 -36 -173 -21
-1128 -82 -1340 -87 -81 -1 -94 1 -107 18 -8 10 -15 29 -15 41 0 34 -45 63
-98 63 -40 0 -49 -5 -86 -44 -23 -24 -60 -56 -84 -71 -40 -27 -53 -29 -203
-38 -102 -7 -186 -7 -234 -1 l-75 10 0 -2788 0 -2788 1890 0 1889 0 -9 26
c-32 84 17 191 103 223 100 38 215 -102 171 -207 -8 -19 -14 -36 -14 -38 0 -2
533 -4 1185 -4 l1186 0 -1 696 c-1 676 -2 696 -20 691 -13 -3 -24 3 -35 19
-18 28 -11 30 28 10 l27 -15 0 77 c-1 77 -1 77 -38 106 l-37 28 38 -6 c38 -7
53 7 17 17 -11 3 -20 10 -20 17 0 7 9 14 20 17 26 7 26 31 0 35 -12 2 -20 8
-20 13 1 6 11 9 23 7 22 -4 22 -3 2 12 -18 14 -18 15 -2 16 9 0 17 5 17 11 0
5 -4 7 -10 4 -11 -7 -61 46 -54 57 7 11 44 -14 44 -29 0 -7 5 -13 10 -13 7 0
10 228 10 665 0 437 -3 665 -10 665 -5 0 -10 -4 -10 -10 0 -20 -19 -9 -31 19
-8 18 -30 37 -57 50 -45 22 -48 41 -6 41 14 0 24 -6 24 -14 0 -26 39 -46 66
-34 21 10 24 18 24 65 0 41 -3 53 -15 53 -9 0 -18 -7 -21 -15 -4 -9 -19 -15
-36 -15 -16 0 -42 -7 -58 -15 -28 -14 -30 -14 -30 1 0 10 8 26 18 37 17 20 16
20 -20 14 l-37 -6 18 42 c9 23 16 49 14 57 -1 8 14 25 34 38 32 21 37 21 53 7
9 -8 20 -12 23 -8 4 3 16 -3 27 -15 12 -12 23 -22 25 -22 3 0 5 612 5 1359 l0
1359 -26 6 c-28 7 -67 39 -157 129 -32 31 -61 56 -65 55 -4 0 -34 -4 -67 -7z
m-174 -304 c-8 -8 -11 -7 -11 4 0 9 3 19 7 23 4 4 9 2 11 -4 3 -7 -1 -17 -7
-23z m-1521 -172 c0 -10 -10 -15 -29 -15 -32 0 -50 15 -29 23 27 11 58 7 58
-8z m-1500 -133 c0 -12 -30 -52 -40 -52 -11 0 -50 40 -50 52 0 4 20 8 45 8 25
0 45 -3 45 -8z m-528 -72 c-2 -19 -12 -43 -23 -53 -23 -21 -24 -40 -5 -56 8
-7 17 -31 21 -54 10 -63 60 -263 85 -340 24 -75 23 -94 -22 -285 -17 -73 -27
-230 -21 -317 1 -16 0 -56 -3 -87 -6 -55 -7 -58 -34 -58 -15 0 -47 7 -71 16
-73 25 -114 23 -149 -11 -45 -43 -55 -85 -54 -220 0 -97 -3 -122 -15 -133 -14
-11 -14 -14 7 -28 12 -9 22 -25 22 -35 0 -45 78 -182 148 -258 30 -34 31 -38
34 -135 l3 -101 13 79 c7 44 15 82 18 85 2 3 32 -10 65 -28 43 -23 73 -33 107
-33 48 -1 62 -10 62 -40 0 -11 -10 -18 -27 -20 l-28 -3 31 -17 c34 -18 44 -41
44 -100 0 -31 -5 -40 -30 -53 -16 -8 -39 -15 -52 -16 -22 0 -22 -1 -3 -9 11
-5 38 -6 60 -4 l41 6 17 -55 c25 -81 24 -84 -33 -89 -59 -6 -61 -7 -54 -35 5
-17 16 -21 71 -26 36 -3 71 -11 78 -18 13 -14 43 -219 37 -251 -2 -10 -14 -21
-28 -24 -13 -3 -24 -10 -24 -14 0 -5 -8 -7 -17 -5 -10 2 -21 4 -25 4 -5 1 -8
8 -8 16 0 22 -10 18 -44 -17 -17 -18 -45 -43 -61 -55 l-30 -22 28 0 29 -1 -7
-59 c-6 -51 -3 -66 19 -112 17 -35 22 -56 14 -60 -5 -4 -47 -14 -91 -24 -70
-15 -82 -15 -91 -3 -17 23 -46 30 -52 13 -4 -8 -12 -15 -20 -15 -8 0 -14 -6
-14 -12 0 -9 -4 -8 -10 2 -5 8 -10 45 -10 82 0 63 -11 95 -23 64 -3 -8 -9 -52
-13 -98 l-6 -84 -107 -22 c-58 -12 -115 -23 -126 -25 -11 -1 -22 -4 -25 -8 -3
-3 -45 -17 -95 -32 -90 -28 -116 -39 -273 -123 -87 -46 -133 -54 -166 -29 -12
9 -42 15 -79 15 -56 0 -58 1 -52 23 4 12 11 26 16 32 5 5 9 21 9 36 0 16 8 32
22 41 20 14 22 22 20 89 l-3 74 56 58 c31 31 63 57 70 57 8 0 17 4 20 10 7 11
-72 4 -117 -10 -16 -5 -30 -5 -33 0 -5 8 -83 6 -180 -6 -22 -3 -55 -5 -72 -4
-39 1 -40 -6 -9 -68 14 -27 23 -60 21 -77 -2 -16 -6 -73 -10 -125 -9 -124 -29
-197 -56 -205 -11 -4 -18 -10 -14 -13 3 -3 -18 -12 -47 -19 -29 -8 -54 -18
-56 -22 -2 -5 -11 -7 -20 -5 -9 3 -41 -2 -69 -9 -53 -14 -53 -14 -53 9 0 13
-4 24 -10 24 -5 0 -10 -4 -10 -10 0 -14 -52 -60 -62 -54 -4 3 -2 14 5 25 10
16 9 21 -3 29 -24 16 -44 7 -55 -24 -8 -25 -6 -31 19 -51 l28 -22 -29 -19
c-15 -11 -45 -27 -65 -37 -21 -9 -38 -23 -38 -30 0 -7 -10 -13 -22 -14 -37 -3
-136 -111 -174 -190 -20 -40 -36 -73 -38 -73 -1 0 -1 28 1 63 2 73 -15 58 -19
-17 -2 -35 -7 -46 -20 -46 -9 0 -20 -5 -23 -10 -4 -6 -10 -8 -15 -5 -10 6 -8
31 16 210 7 61 18 144 23 185 5 41 21 161 36 265 14 105 32 249 40 320 16 155
39 320 66 470 11 61 26 151 35 200 30 169 55 299 61 308 3 5 14 7 24 4 11 -3
20 1 24 12 3 10 18 29 33 43 25 23 38 26 170 36 105 9 149 8 167 0 20 -9 28
-8 43 5 37 34 65 17 77 -45 11 -61 62 -46 95 27 22 48 48 62 82 44 57 -29 59
-34 52 -151 -4 -59 -5 -108 -2 -108 3 0 19 7 36 16 37 18 52 60 52 145 0 55 1
57 41 85 22 15 59 30 82 33 37 5 44 3 55 -18 7 -13 10 -38 6 -55 -5 -30 -3
-32 41 -50 53 -22 60 -30 57 -69 -1 -15 4 -35 13 -43 8 -9 15 -25 15 -37 1
-28 25 -61 39 -52 15 9 14 38 -4 61 -20 26 -19 41 5 74 30 42 45 175 24 207
-14 22 -20 24 -67 18 -29 -3 -99 -8 -157 -10 -58 -2 -170 -7 -249 -11 -109 -5
-142 -4 -137 4 11 19 -4 54 -20 48 -8 -3 -14 1 -14 9 0 8 4 15 9 15 5 0 18 23
29 52 l20 52 63 12 c35 7 84 19 109 28 25 9 55 16 68 16 13 0 47 8 75 17 l52
17 -70 12 c-39 7 -113 15 -164 18 -52 3 -96 8 -99 11 -3 3 0 5 6 5 7 0 19 18
28 40 9 22 21 40 28 40 6 0 3 5 -6 11 -10 5 -18 16 -18 24 0 8 -10 17 -22 20
-13 3 -210 6 -439 8 -314 1 -420 5 -431 14 -13 11 -13 22 3 90 35 156 68 290
89 363 12 41 24 86 27 100 28 145 68 287 98 355 12 28 29 68 36 90 8 22 23 50
34 63 10 12 28 41 40 64 20 40 64 75 128 99 38 15 34 26 -13 34 -62 11 -90 71
-42 90 25 9 275 34 707 70 94 8 224 19 290 25 208 19 356 27 485 26 l125 -1
-3 -35z m3298 -192 c0 -19 -2 -20 -10 -8 -13 19 -13 30 0 30 6 0 10 -10 10
-22z m12 -50 c-7 -7 -12 -8 -12 -2 0 14 12 26 19 19 2 -3 -1 -11 -7 -17z m135
2 c3 -12 13 -19 26 -17 23 2 33 -22 23 -50 -6 -14 -8 -14 -24 1 -25 22 -30 20
-34 -11 -2 -18 -10 -29 -21 -31 -15 -3 -18 0 -13 16 4 11 2 23 -4 27 -13 8
-13 26 0 59 11 31 40 34 47 6z m-137 -38 c0 -5 -7 -17 -16 -28 -8 -10 -14 -14
-11 -9 2 6 7 18 10 28 7 17 17 23 17 9z m130 -139 c0 -16 7 -27 20 -30 11 -3
20 -8 20 -11 0 -14 -39 -31 -71 -32 -31 0 -38 4 -49 29 -10 26 -9 32 8 49 20
20 51 32 65 25 4 -2 7 -16 7 -30z m-1840 -88 c0 -16 -27 -32 -37 -22 -3 4 -3
13 0 22 8 20 37 20 37 0z m-65 -15 c3 -5 2 -10 -4 -10 -5 0 -13 5 -16 10 -3 6
-2 10 4 10 5 0 13 -4 16 -10z m102 -12 c-3 -8 -6 -5 -6 6 -1 11 2 17 5 13 3
-3 4 -12 1 -19z m1531 -134 c-4 -3 -12 5 -18 18 -12 22 -12 22 6 6 10 -10 15
-20 12 -24z m116 10 c9 -23 7 -62 -3 -68 -4 -3 -17 5 -28 17 -16 17 -19 28
-12 45 10 26 34 29 43 6z m-7 -246 c-3 -7 -5 -2 -5 12 0 14 2 19 5 13 2 -7 2
-19 0 -25z m-2327 2 c165 -18 317 -67 339 -109 17 -32 13 -82 -14 -161 -14
-40 -25 -80 -25 -87 0 -24 -69 -123 -86 -123 -9 0 -48 11 -86 25 -38 14 -80
25 -92 25 -30 0 -42 15 -50 63 -7 39 -14 45 -34 25 -9 -9 -12 -3 -12 30 l0 42
-46 0 c-34 0 -45 -4 -41 -13 7 -18 -19 -51 -33 -42 -7 4 -10 18 -7 31 2 14 -1
25 -9 28 -10 4 -14 -4 -14 -27 0 -18 -5 -38 -12 -45 -9 -9 -8 -12 5 -12 12 0
17 -8 17 -26 0 -25 -2 -25 -42 -19 -51 9 -50 8 -42 29 4 9 13 15 20 12 8 -3
14 1 14 9 0 7 -9 17 -20 20 -27 9 -25 33 3 45 l22 9 -22 0 c-28 1 -31 21 -4
21 20 0 35 25 25 41 -3 5 4 9 15 9 11 0 22 -8 24 -17 4 -14 5 -13 6 4 1 20 4
21 27 13 34 -13 74 -13 74 1 0 8 5 7 15 -1 18 -15 30 -7 22 13 -10 26 -141 38
-150 15 -3 -7 -6 1 -6 18 -1 24 -6 33 -23 38 -42 11 -91 6 -110 -11 -11 -10
-18 -13 -17 -8 1 6 -1 32 -6 58 -4 29 -4 52 2 58 25 25 227 35 373 19z m371
-66 l46 -23 2 -63 c1 -60 -2 -69 -60 -176 -33 -61 -62 -112 -64 -112 -2 0 7
25 21 56 52 119 70 263 37 303 -10 11 -36 28 -58 36 l-40 15 35 -6 c19 -4 56
-17 81 -30z m-771 6 c0 -5 -7 -10 -16 -10 -8 0 -12 5 -9 10 3 6 10 10 16 10 5
0 9 -4 9 -10z m1155 -14 c-67 -17 -94 -32 -106 -62 -9 -25 -35 -29 -33 -6 1 7
2 20 3 30 1 24 77 49 151 50 31 0 30 -1 -15 -12z m-239 -4 c6 -4 10 -23 9 -42
-1 -19 -3 -47 -4 -62 -1 -24 -5 -28 -31 -28 -30 0 -40 14 -17 24 10 5 10 7 0
12 -8 3 -13 25 -13 55 0 44 2 49 23 49 12 0 27 -4 33 -8z m449 -33 c3 -4 3
-23 0 -42 -5 -25 -11 -34 -21 -30 -19 7 -18 -12 1 -31 24 -24 19 -44 -10 -38
-20 3 -24 1 -19 -12 4 -10 1 -16 -7 -16 -17 0 -21 -47 -8 -72 7 -12 6 -18 -1
-18 -6 0 -18 -7 -26 -15 -11 -11 -12 -15 -3 -15 33 0 -6 -12 -67 -21 -37 -5
-75 -15 -83 -22 -14 -11 -14 -10 -2 5 11 15 11 22 -4 44 -9 14 -19 23 -22 20
-3 -3 0 -12 7 -21 7 -9 10 -18 8 -21 -3 -3 -16 15 -28 40 -16 35 -22 66 -23
136 -2 90 -1 92 27 117 28 24 33 24 152 21 67 -2 125 -6 129 -9z m-329 -110
c1 -24 7 -75 13 -113 14 -80 9 -97 -8 -29 -7 26 -19 61 -27 76 -7 16 -14 41
-14 57 0 71 34 80 36 9z m2314 13 c0 -35 -37 -53 -68 -33 -12 7 -12 12 -1 30
18 27 69 30 69 3z m-3303 -84 c-2 -13 -4 -5 -4 17 -1 22 1 32 4 23 2 -10 2
-28 0 -40z m3283 22 c-19 -13 -30 -13 -30 0 0 6 10 10 23 10 18 0 19 -2 7 -10z
m-2517 -20 c-3 -12 -8 -19 -11 -16 -5 6 5 36 12 36 2 0 2 -9 -1 -20z m73 0 c0
-14 -7 -20 -23 -20 -13 0 -23 6 -23 13 0 8 -4 7 -11 -3 -9 -13 -10 -13 -6 0 2
8 12 14 22 12 10 -2 14 1 10 7 -3 6 2 11 12 11 12 0 19 -7 19 -20z m-810 -157
c-5 -5 -26 92 -25 115 1 9 7 -12 15 -47 8 -35 12 -66 10 -68z m2204 60 c0 -7
-4 -13 -10 -13 -5 0 -10 12 -10 28 0 21 2 24 10 12 5 -8 10 -21 10 -27z
m-2145 -23 c-3 -5 -10 -10 -16 -10 -5 0 -9 5 -9 10 0 6 7 10 16 10 8 0 12 -4
9 -10z m1025 -34 c0 -2 -7 -7 -16 -10 -8 -3 -12 -2 -9 4 6 10 25 14 25 6z
m-254 -27 c40 -24 44 -46 9 -46 -14 0 -22 4 -18 10 4 6 -3 8 -19 4 -28 -7 -42
10 -32 38 8 20 20 19 60 -6z m-491 -84 c20 -7 -281 -2 -310 4 -16 4 44 6 135
3 91 -2 170 -5 175 -7z m58 8 c-7 -2 -21 -2 -30 0 -10 3 -4 5 12 5 17 0 24 -2
18 -5z m920 -60 c-7 -2 -19 -2 -25 0 -7 3 -2 5 12 5 14 0 19 -2 13 -5z m-2609
-434 c7 -36 1 -49 -23 -49 -23 0 -41 19 -41 45 0 27 8 35 35 35 17 0 24 -8 29
-31z m-324 -34 c0 -15 -18 -30 -27 -22 -2 3 -2 15 2 26 7 23 25 19 25 -4z
m4713 -212 c57 -56 62 -68 48 -125 l-6 -27 -40 22 c-35 20 -41 28 -48 72 -4
28 -12 54 -18 60 -5 5 -9 17 -9 28 0 11 -4 15 -12 11 -7 -4 -8 -3 -4 4 13 22
33 12 89 -45z m-1826 -3 c18 -11 31 -25 28 -32 -2 -7 -9 -32 -15 -56 l-11 -43
-24 36 c-42 62 -57 95 -43 95 9 0 8 3 -2 10 -31 20 34 10 67 -10z m-3959 -192
c19 -41 2 -75 -45 -84 -21 -4 -43 -11 -49 -15 -33 -27 -46 79 -14 111 31 31
90 24 108 -12z m-102 -143 c8 -34 -2 -57 -23 -53 -22 4 -30 57 -11 69 21 14
27 11 34 -16z m5514 -19 c0 -2 -9 -6 -20 -9 -11 -3 -18 -1 -14 4 5 9 34 13 34
5z m-3 -58 c-3 -7 -5 -2 -5 12 0 14 2 19 5 13 2 -7 2 -19 0 -25z m25 -103 c6
-14 15 -25 20 -25 4 0 8 -7 8 -15 0 -8 -4 -15 -9 -15 -5 0 -11 -9 -14 -20 -3
-14 -14 -20 -31 -20 -19 0 -26 5 -26 20 0 11 -4 20 -10 20 -14 0 -12 48 3 65
19 22 46 18 59 -10z m-3027 -134 c8 -14 -26 -81 -41 -81 -7 0 -22 -12 -34 -27
-24 -31 -22 -74 6 -104 9 -10 13 -23 9 -28 -11 -18 -39 -12 -68 14 -22 21 -27
34 -27 73 0 53 20 89 72 133 33 29 71 38 83 20z m2882 -117 c-9 -9 -28 6 -21
18 4 6 10 6 17 -1 6 -6 8 -13 4 -17z m-4461 -532 c-12 -12 -18 8 -10 35 l8 28
4 -28 c2 -16 1 -31 -2 -35z m5084 -106 c0 -43 -13 -36 -31 17 -23 67 -23 67 6
34 14 -15 25 -38 25 -51z m8 49 c-3 -3 -9 2 -12 12 -6 14 -5 15 5 6 7 -7 10
-15 7 -18z m-497 -20 c19 -8 27 -14 19 -14 -14 0 -72 28 -59 29 4 0 22 -7 40
-15z m-4731 -20 c-7 -8 -17 -12 -23 -8 -6 4 -3 9 9 14 27 11 28 11 14 -6z m70
11 c0 -3 -4 -8 -10 -11 -5 -3 -10 -1 -10 4 0 6 5 11 10 11 6 0 10 -2 10 -4z
m188 -32 c12 -8 22 -20 22 -26 0 -7 -6 -5 -12 4 -7 8 -22 20 -33 26 -11 6 -15
12 -10 12 6 0 21 -7 33 -16z m4396 7 c3 -4 -3 -16 -14 -26 -12 -10 -20 -13
-20 -7 0 7 5 12 11 12 6 0 9 7 5 15 -6 16 9 21 18 6z m-4794 -27 c0 -8 -4 -12
-10 -9 -5 3 -10 10 -10 16 0 5 5 9 10 9 6 0 10 -7 10 -16z m4838 -19 c7 -14
12 -32 12 -40 0 -8 5 -15 10 -15 10 0 14 21 10 49 -1 13 1 13 17 1 25 -20 53
-48 53 -55 0 -3 -9 -5 -20 -5 -10 0 -23 -7 -28 -16 -6 -11 -11 -13 -16 -5 -4
6 -15 11 -25 11 -12 0 -21 10 -25 28 -3 15 -8 37 -12 50 -9 30 10 28 24 -3z
m302 -39 c0 -17 -10 -25 -50 -36 -39 -11 -39 -2 0 11 17 6 30 17 30 25 0 8 5
14 10 14 6 0 10 -6 10 -14z m172 -49 c24 -24 50 -46 58 -49 13 -4 13 -7 1 -21
-10 -13 -17 -14 -27 -6 -7 6 -18 8 -24 4 -5 -3 -10 1 -10 10 0 22 -37 92 -52
98 -9 4 -10 6 -1 6 7 1 31 -19 55 -42z m-5457 23 c3 -5 1 -10 -4 -10 -6 0 -11
5 -11 10 0 6 2 10 4 10 3 0 8 -4 11 -10z m5261 -37 c-11 -11 -88 -15 -82 -5 3
5 24 10 47 10 23 1 38 -2 35 -5z m111 -9 c-3 -3 -12 -4 -19 -1 -8 3 -5 6 6 6
11 1 17 -2 13 -5z m-5079 -39 c-3 -3 -9 2 -12 12 -6 14 -5 15 5 6 7 -7 10 -15
7 -18z m4767 15 c-3 -5 -13 -10 -21 -10 -8 0 -14 -4 -14 -10 0 -5 4 -10 8 -10
9 0 14 -101 6 -137 -2 -13 -10 -23 -17 -23 -10 0 -13 26 -13 100 l1 100 28 0
c16 0 26 -4 22 -10z m202 4 c-3 -3 -12 -4 -19 -1 -8 3 -5 6 6 6 11 1 17 -2 13
-5z m112 -33 c-15 -5 -22 6 -14 19 6 9 10 9 16 -1 5 -8 4 -15 -2 -18z m-112
-7 c19 -18 16 -24 -10 -24 -23 0 -60 33 -49 44 8 8 43 -4 59 -20z m383 -31 c0
-7 -3 -13 -6 -13 -11 0 -42 45 -37 53 7 11 43 -22 43 -40z m-716 12 c-4 -8
-10 -15 -14 -15 -4 0 -13 7 -20 15 -11 13 -8 15 13 15 19 0 25 -4 21 -15z
m161 5 c3 -6 -1 -7 -9 -4 -18 7 -21 14 -7 14 6 0 13 -4 16 -10z m-5175 -10 c0
-5 -2 -10 -4 -10 -3 0 -8 5 -11 10 -3 6 -1 10 4 10 6 0 11 -4 11 -10z m5586
-9 c-21 -24 -56 -34 -56 -17 0 14 35 34 59 35 11 1 10 -3 -3 -18z m-5536 -15
c0 -2 -7 -7 -16 -10 -8 -3 -12 -2 -9 4 6 10 25 14 25 6z m5470 -6 c0 -5 -4
-10 -10 -10 -5 0 -10 5 -10 10 0 6 5 10 10 10 6 0 10 -4 10 -10z m181 -11 c10
-19 8 -20 -10 -14 -12 4 -21 2 -21 -4 0 -6 11 -13 25 -17 37 -9 30 -30 -18
-53 -47 -23 -73 -26 -82 -11 -3 6 1 10 10 10 11 0 15 5 11 15 -4 11 1 15 19
15 31 0 41 17 21 39 -12 13 -13 20 -4 29 18 18 36 15 49 -9z m-166 -49 c10
-11 16 -20 13 -20 -3 0 -13 9 -23 20 -10 11 -16 20 -13 20 3 0 13 -9 23 -20z
m-75 -20 c0 -11 -4 -20 -10 -20 -5 0 -10 2 -10 4 0 2 -3 11 -6 20 -4 11 -1 16
10 16 9 0 16 -8 16 -20z m75 -30 c3 -5 2 -10 -4 -10 -5 0 -13 5 -16 10 -3 6
-2 10 4 10 5 0 13 -4 16 -10z m-2700 -28 c-3 -3 -11 0 -18 7 -9 10 -8 11 6 5
10 -3 15 -9 12 -12z m2225 8 c0 -5 -2 -10 -4 -10 -3 0 -8 5 -11 10 -3 6 -1 10
4 10 6 0 11 -4 11 -10z m477 -6 c-3 -3 -12 -4 -19 -1 -8 3 -5 6 6 6 11 1 17
-2 13 -5z m194 -11 c32 -19 33 -21 20 -42 -7 -11 -10 -9 -16 8 -3 11 -16 26
-27 32 -18 10 -20 9 -14 -6 5 -14 2 -16 -19 -11 -14 3 -36 9 -50 12 -34 8 -32
-10 4 -37 26 -19 28 -24 15 -36 -8 -8 -12 -19 -9 -24 4 -5 2 -9 -3 -9 -16 0
-46 41 -47 64 -1 12 -5 28 -9 35 -13 20 12 31 72 31 33 0 65 -7 83 -17z m-641
-70 c0 -12 -4 -25 -10 -28 -5 -3 -10 0 -10 8 0 8 -3 30 -6 48 -6 32 -6 33 9
14 9 -11 17 -30 17 -42z m417 41 c2 -7 -6 -10 -21 -7 -14 3 -23 10 -20 15 8
12 36 6 41 -8z m-2317 -50 c12 -30 -6 -54 -38 -54 -18 0 -19 3 -10 35 6 19 15
32 20 29 4 -3 8 0 8 5 0 19 10 12 20 -15z m2380 -18 c0 -3 -4 -8 -10 -11 -5
-3 -10 -1 -10 4 0 6 5 11 10 11 6 0 10 -2 10 -4z m143 -14 c-12 -12 -21 -14
-25 -8 -5 7 -8 7 -8 -1 0 -7 -4 -13 -10 -13 -19 0 -10 21 13 30 37 15 49 12
30 -8z m-2667 -17 c-14 -14 -16 -14 -16 -2 0 9 6 17 13 20 19 7 21 -1 3 -18z
m244 -26 c0 -6 -4 -7 -10 -4 -5 3 -10 11 -10 16 0 6 5 7 10 4 6 -3 10 -11 10
-16z m2368 -12 c26 -24 28 -37 7 -37 -8 0 -17 11 -21 25 -3 14 -12 25 -20 25
-8 0 -14 5 -14 11 0 12 16 4 48 -24z m-2765 3 c-3 -11 -1 -26 5 -33 16 -19 18
-83 3 -101 -14 -17 -36 -22 -26 -7 3 5 1 12 -5 16 -5 3 -10 0 -10 -7 0 -8 -5
-5 -11 5 -10 17 -9 48 3 98 5 20 27 49 38 49 5 0 6 -9 3 -20z m276 -40 c49
-52 56 -79 30 -106 -34 -33 -80 -21 -97 27 -7 19 -4 31 16 58 l26 33 -23 19
c-13 11 -18 19 -11 19 7 0 33 -23 59 -50z m-129 13 c-14 -9 -29 -23 -33 -30
-10 -16 -28 -17 -24 -1 3 19 21 35 43 41 36 9 38 7 14 -10z m247 -5 c-3 -8 -6
-5 -6 6 -1 11 2 17 5 13 3 -3 4 -12 1 -19z m1913 12 c0 -5 -4 -10 -10 -10 -5
0 -10 5 -10 10 0 6 5 10 10 10 6 0 10 -4 10 -10z m-658 -61 c-23 -9 -27 -3
-11 14 10 11 16 12 21 3 4 -6 0 -14 -10 -17z m353 21 c3 -5 1 -10 -4 -10 -6 0
-11 5 -11 10 0 6 2 10 4 10 3 0 8 -4 11 -10z m55 -6 c0 -2 -7 -4 -15 -4 -8 0
-15 4 -15 10 0 5 7 7 15 4 8 -4 15 -8 15 -10z m301 -10 c23 -25 23 -26 2 -15
-12 6 -31 11 -42 11 -14 0 -19 5 -15 15 9 22 27 18 55 -11z m417 -10 c-4 -3
-12 5 -18 18 -12 22 -12 22 6 6 10 -10 15 -20 12 -24z m-502 -5 c35 -21 38
-27 28 -53 -9 -23 -27 -20 -19 3 4 14 -3 26 -27 45 -40 31 -29 34 18 5z m489
-9 c3 -5 1 -10 -4 -10 -6 0 -11 5 -11 10 0 6 2 10 4 10 3 0 8 -4 11 -10z
m-2623 -11 l-23 -9 28 -29 c32 -33 40 -33 23 1 -11 22 -10 22 4 4 17 -21 21
-46 8 -46 -4 0 -18 10 -32 23 -28 26 -67 40 -76 26 -3 -5 -10 -9 -15 -9 -6 0
-4 6 3 13 26 23 53 36 78 36 l25 0 -23 -10z m2008 -4 c0 -14 -12 -19 -32 -16
-5 0 -8 -8 -8 -19 0 -11 -7 -20 -15 -20 -17 0 -20 16 -5 25 8 5 7 12 -2 23 -7
9 -8 13 -3 10 6 -3 19 -2 30 3 30 11 35 11 35 -6z m74 -16 c-8 -13 -24 -1 -24
18 0 13 3 13 15 3 8 -7 12 -16 9 -21z m-5089 -8 c3 -5 2 -12 -3 -15 -5 -3 -9
1 -9 9 0 17 3 19 12 6z m2353 -32 c-1 -17 -8 -33 -15 -36 -12 -5 -12 -7 -1
-14 8 -5 9 -12 3 -18 -7 -7 -14 -2 -22 15 -6 13 -7 22 -2 18 5 -3 9 1 9 9 0
11 -7 13 -22 9 -21 -5 -20 -3 7 24 36 35 44 34 43 -7z m2096 2 c-8 -9 -22 12
-17 26 6 15 7 14 13 -3 4 -10 6 -21 4 -23z m343 -33 c-3 -8 -6 -5 -6 6 -1 11
2 17 5 13 3 -3 4 -12 1 -19z m93 12 c0 -5 -2 -10 -4 -10 -3 0 -8 5 -11 10 -3
6 -1 10 4 10 6 0 11 -4 11 -10z m334 1 c3 -4 19 -11 36 -14 16 -4 30 -11 30
-17 0 -6 -4 -8 -10 -5 -6 3 -7 -1 -4 -9 3 -9 1 -16 -5 -16 -6 0 -11 -8 -12
-17 0 -14 -2 -13 -9 4 -6 15 -15 21 -25 17 -8 -3 -15 -1 -15 5 0 6 -7 11 -15
11 -9 0 -15 9 -15 25 0 18 5 25 19 25 11 0 22 -4 25 -9z m-2315 -23 c-10 -6
-7 -7 8 -3 18 5 24 1 29 -20 3 -14 3 -29 0 -33 -4 -3 -9 4 -13 16 -3 12 -9 19
-15 16 -5 -3 -15 0 -24 6 -11 10 -11 16 -3 26 6 8 16 11 21 8 6 -4 5 -10 -3
-16z m377 2 c5 0 11 -6 12 -16 3 -11 0 -14 -8 -9 -9 5 -10 1 -5 -16 5 -16 4
-21 -3 -14 -5 6 -12 26 -16 45 -3 21 -3 30 3 22 4 -8 12 -13 17 -12z m1251
-12 c-3 -7 -5 -2 -5 12 0 14 2 19 5 13 2 -7 2 -19 0 -25z m-47 -3 c13 -14 22
-27 19 -29 -2 -2 -16 9 -30 25 -15 16 -23 29 -20 29 4 0 18 -11 31 -25z m335
15 c3 -5 1 -10 -4 -10 -6 0 -11 5 -11 10 0 6 2 10 4 10 3 0 8 -4 11 -10z
m-1653 -32 c-7 -7 -12 -8 -12 -2 0 14 12 26 19 19 2 -3 -1 -11 -7 -17z m-408
4 c7 -11 -4 -52 -13 -52 -4 0 -8 14 -8 30 0 29 10 39 21 22z m1703 -14 c-3 -8
-6 -5 -6 6 -1 11 2 17 5 13 3 -3 4 -12 1 -19z m-1737 -14 c0 -8 -4 -12 -10 -9
-5 3 -10 10 -10 16 0 5 5 9 10 9 6 0 10 -7 10 -16z m596 -20 c-30 -22 -39 -17
-19 10 12 16 21 21 28 15 7 -7 3 -15 -9 -25z m-351 -4 c3 -6 -1 -7 -9 -4 -18
7 -21 14 -7 14 6 0 13 -4 16 -10z m1595 -10 c0 -11 -2 -20 -5 -20 -2 0 -9 9
-15 20 -9 16 -8 20 5 20 8 0 15 -9 15 -20z m276 11 c-4 -5 3 -7 14 -4 15 4 19
2 15 -9 -4 -9 3 -43 14 -76 12 -34 21 -72 21 -86 0 -27 -15 -42 -25 -26 -3 5
-16 10 -27 10 -12 0 -18 3 -15 7 4 3 2 12 -4 20 -8 9 -8 13 -1 13 6 0 14 -5
18 -11 4 -8 9 -7 15 2 8 14 -13 74 -36 99 -16 17 -20 52 -8 63 10 10 25 8 19
-2z m-1890 -54 c-2 -7 -5 -4 -5 6 -1 9 -6 17 -12 17 -5 0 -7 5 -3 11 9 15 28
-16 20 -34z m1574 -39 c0 -20 -15 -24 -26 -6 -4 7 -3 8 4 4 7 -4 12 -1 12 9 0
9 -4 13 -10 10 -6 -3 -7 1 -3 10 5 13 7 14 14 3 5 -7 9 -21 9 -30z m80 -33 c0
-8 -4 -15 -10 -15 -5 0 -7 7 -4 15 4 8 8 15 10 15 2 0 4 -7 4 -15z m-125 -16
c8 -23 1 -34 -14 -24 -13 8 -15 45 -2 45 5 0 13 -9 16 -21z m45 -4 c13 -14 19
-25 13 -25 -5 0 -20 11 -33 25 -13 14 -19 25 -13 25 5 0 20 -11 33 -25z m446
13 c4 -7 3 -8 -4 -4 -16 9 -15 -7 0 -22 9 -9 8 -12 -5 -12 -17 0 -24 30 -10
43 9 9 11 9 19 -5z m-1971 -12 c8 -7 11 -16 8 -19 -5 -6 -33 17 -33 27 0 10
11 7 25 -8z m-335 -10 c0 -2 -7 -7 -16 -10 -8 -3 -12 -2 -9 4 6 10 25 14 25 6z
m20 -10 c0 -2 -8 -10 -17 -17 -16 -13 -17 -12 -4 4 13 16 21 21 21 13z m1859
-66 c11 -24 11 -24 -3 -6 -9 11 -16 24 -16 30 0 12 5 7 19 -24z m-2496 -25 c4
-8 2 -17 -4 -20 -5 -4 -6 -11 -3 -17 5 -7 11 -5 20 6 11 16 14 14 25 -18 7
-20 17 -36 21 -36 4 0 8 -7 8 -15 0 -22 -47 -19 -72 5 l-22 20 27 0 c14 0 29
5 32 10 4 7 -2 9 -18 5 -14 -4 -35 -2 -46 5 -21 11 -21 12 -4 40 19 33 28 37
36 15z m2500 -33 c-2 -7 2 -12 8 -12 6 0 9 -7 6 -15 -4 -8 -2 -17 2 -20 5 -2
11 -14 14 -26 5 -20 4 -20 -22 5 -49 47 -73 23 -27 -27 28 -30 20 -42 -18 -27
-17 6 -24 14 -20 25 5 11 2 14 -12 9 -18 -5 -18 -5 -1 9 20 17 22 33 5 40 -7
3 -4 6 7 6 11 1 26 5 34 10 13 8 13 12 1 26 -13 15 -12 17 5 13 11 -2 19 -10
18 -16z m67 -51 c0 -13 2 -13 9 -2 6 9 10 10 16 2 4 -7 1 -19 -7 -28 -7 -9 -8
-14 -2 -10 13 8 40 -20 30 -30 -3 -4 6 -13 21 -20 l28 -13 -35 5 c-43 7 -46
10 -70 76 -24 64 -24 65 -5 49 8 -7 15 -20 15 -29z m-2225 19 c-3 -5 -1 -10 5
-10 6 0 8 -5 5 -10 -4 -6 -12 -5 -21 4 -18 19 -18 26 2 26 8 0 12 -4 9 -10z
m2665 -35 c0 -11 -29 -11 -33 -1 -4 10 1 12 14 9 10 -3 19 -7 19 -8z m55 -23
c-3 -3 -11 0 -18 7 -9 10 -8 11 6 5 10 -3 15 -9 12 -12z m-58 -24 c-3 -8 -6
-5 -6 6 -1 11 2 17 5 13 3 -3 4 -12 1 -19z m-3004 -2 c6 -14 -1 -26 -14 -26
-4 0 -7 9 -6 20 1 23 12 26 20 6z m124 -32 c-9 -9 -27 6 -27 22 0 13 2 13 16
-1 9 -9 14 -18 11 -21z m-383 -12 c3 -5 -1 -9 -9 -9 -8 0 -15 4 -15 9 0 4 4 8
9 8 6 0 12 -4 15 -8z m2872 -10 c6 -4 19 -22 28 -39 9 -18 21 -33 26 -33 6 0
10 -4 10 -10 0 -17 -41 -11 -67 10 -14 11 -31 20 -37 20 -6 0 -11 14 -11 30 0
23 4 30 20 30 11 0 25 -4 31 -8z m404 -2 c0 -5 -5 -10 -11 -10 -5 0 -7 5 -4
10 3 6 8 10 11 10 2 0 4 -4 4 -10z m-496 -19 c4 -5 -3 -7 -14 -4 -23 6 -26 13
-6 13 8 0 17 -4 20 -9z m332 -37 c-3 -15 -1 -36 5 -46 9 -17 8 -18 -10 -9 -24
13 -36 31 -22 31 6 0 11 8 11 18 0 17 8 32 17 32 2 0 1 -12 -1 -26z m-2647
-30 c3 -2 0 -8 -5 -13 -5 -6 -19 -1 -34 11 l-25 21 30 -7 c16 -4 32 -10 34
-12z m-59 -8 c0 -2 -11 -6 -25 -8 -13 -3 -22 -1 -19 3 5 9 44 13 44 5z m-328
-31 c10 10 30 -25 24 -41 -10 -27 -38 -11 -53 30 -13 38 -12 39 5 23 10 -10
21 -15 24 -12z m2862 -6 c-12 -20 -15 -83 -5 -98 8 -13 12 -13 26 -1 15 13 17
11 13 -10 -1 -13 -9 -25 -17 -28 -8 -3 -11 0 -7 7 4 7 2 9 -7 5 -9 -3 -23 7
-37 25 -12 17 -17 31 -11 31 6 0 11 5 11 10 0 6 -9 10 -20 10 -31 0 -24 26 13
44 38 19 51 20 41 5z m-121 -20 c-8 -8 -16 -8 -30 0 -16 9 -14 10 12 11 21 0
26 -3 18 -11z m181 -55 c12 -5 13 -10 5 -25 -5 -11 -7 -25 -3 -31 5 -7 3 -8
-5 -3 -7 4 -11 18 -8 31 2 13 -1 25 -7 28 -17 7 0 7 18 0z m-3287 -10 c-3 -3
-12 -4 -19 -1 -8 3 -5 6 6 6 11 1 17 -2 13 -5z m243 -64 c0 -5 -5 -10 -11 -10
-5 0 -7 5 -4 10 3 6 8 10 11 10 2 0 4 -4 4 -10z m-60 -90 c0 -6 -6 -13 -14
-16 -8 -3 -17 -15 -21 -27 -4 -14 -8 -17 -12 -9 -7 17 -33 15 -33 -3 0 -9 -6
-12 -15 -9 -8 4 -13 10 -10 14 3 5 -3 6 -14 3 -10 -3 -21 0 -25 5 -3 5 18 12
51 14 38 3 61 10 67 21 12 19 26 22 26 7z m70 -36 c0 -8 -5 -12 -10 -9 -6 4
-8 11 -5 16 9 14 15 11 15 -7z m-332 -121 c-10 -2 -18 -9 -18 -14 0 -5 -4 -9
-10 -9 -5 0 -7 7 -4 15 4 8 16 14 28 14 16 -1 17 -2 4 -6z"/>
<path d="M2454 3471 c-37 -9 -54 -19 -54 -32 0 -5 13 -3 30 6 16 8 36 15 45
15 8 0 15 5 15 10 0 6 -1 10 -2 9 -2 -1 -17 -4 -34 -8z"/>
<path d="M2444 3375 c-13 -20 -14 -28 -4 -40 20 -24 59 -19 72 10 23 50 -37
77 -68 30z"/>
<path d="M2295 3340 c-3 -10 -1 -29 6 -42 l12 -22 9 23 c9 26 2 61 -12 61 -5
0 -11 -9 -15 -20z"/>
<path d="M686 3315 c-9 -9 -16 -23 -16 -30 0 -18 20 -30 29 -18 3 5 14 12 24
16 22 8 19 40 -4 45 -9 2 -24 -4 -33 -13z"/>
<path d="M696 3045 c-7 -20 30 -35 85 -35 54 0 85 16 68 36 -17 21 -145 20
-153 -1z"/>
<path d="M2276 2923 c-9 -10 -7 -71 3 -77 11 -7 21 17 21 49 0 25 -12 39 -24
28z"/>
<path d="M2435 2885 c-42 -41 -28 -85 26 -85 36 0 46 30 24 76 -9 19 -18 34
-21 34 -3 0 -16 -11 -29 -25z"/>
<path d="M1606 2548 c-8 -13 -18 -57 -22 -99 -8 -95 3 -122 49 -117 39 4 46
27 18 65 -34 49 -36 72 -6 83 32 12 41 34 27 66 -14 30 -47 31 -66 2z"/>
<path d="M2372 2563 c-38 -15 -31 -96 8 -86 19 5 28 33 22 71 -3 22 -7 24 -30
15z"/>
<path d="M636 2534 c-21 -20 -20 -39 3 -83 11 -20 22 -48 25 -63 4 -15 16 -33
29 -39 29 -16 97 -28 115 -21 8 3 27 33 43 66 16 34 36 73 46 88 16 26 16 28
-2 48 -18 20 -28 22 -94 18 -62 -3 -76 -7 -92 -27 l-19 -23 0 26 c0 30 -29 36
-54 10z m90 -59 c9 -8 33 -15 54 -15 56 0 62 -23 13 -49 -54 -28 -115 2 -106
53 6 29 18 33 39 11z"/>
<path d="M426 2343 c-3 -10 -7 -41 -10 -69 -2 -29 -7 -57 -10 -63 -4 -6 -1
-11 7 -11 25 0 50 141 28 155 -5 3 -12 -3 -15 -12z"/>
<path d="M1027 2332 c-10 -2 -17 -11 -15 -20 5 -25 25 -25 31 0 7 26 7 26 -16
20z"/>
<path d="M810 2312 c0 -19 28 -32 61 -29 55 4 44 31 -13 35 -27 2 -48 -1 -48
-6z"/>
<path d="M340 1773 l1 -38 15 28 c15 27 12 47 -7 47 -5 0 -9 -17 -9 -37z"/>
<path d="M3470 1351 c0 -6 4 -13 10 -16 6 -3 7 1 4 9 -7 18 -14 21 -14 7z"/>
<path d="M3501 1344 c0 -11 3 -14 6 -6 3 7 2 16 -1 19 -3 4 -6 -2 -5 -13z"/>
<path d="M3890 145 c0 -8 5 -15 10 -15 6 0 10 7 10 15 0 8 -4 15 -10 15 -5 0
-10 -7 -10 -15z"/>
<path d="M3950 111 c0 -6 5 -13 10 -16 6 -3 10 1 10 9 0 9 -4 16 -10 16 -5 0
-10 -4 -10 -9z"/>
<path d="M3850 75 c0 -9 5 -15 11 -13 6 2 11 8 11 13 0 5 -5 11 -11 13 -6 2
-11 -4 -11 -13z"/>
<path d="M3906 41 c-4 -7 -5 -15 -2 -18 9 -9 19 4 14 18 -4 11 -6 11 -12 0z"/>
</g>
</svg>
